<svg width="26" height="26" viewBox="0 0 26 26" fill="none" xmlns="http://www.w3.org/2000/svg">
<rect width="26" height="26" rx="6" fill="#5F30E2"/>
<path d="M10.1667 13.125H14.9167M10.1667 16.2917H14.9167M16.5 20.25H8.58333C8.16341 20.25 7.76068 20.0832 7.46375 19.7863C7.16681 19.4893 7 19.0866 7 18.6667V7.58333C7 7.16341 7.16681 6.76068 7.46375 6.46375C7.76068 6.16681 8.16341 6 8.58333 6H13.0056C13.2155 6.00004 13.4169 6.08348 13.5653 6.23196L17.8514 10.518C17.9999 10.6665 18.0833 10.8678 18.0833 11.0777V18.6667C18.0833 19.0866 17.9165 19.4893 17.6196 19.7863C17.3227 20.0832 16.9199 20.25 16.5 20.25Z" stroke="white" stroke-width="2" stroke-linecap="round" stroke-linejoin="round"/>
</svg>
