<svg width="173" height="21" viewBox="0 0 173 21" fill="none" xmlns="http://www.w3.org/2000/svg">
<path d="M7.12501 10.5H11.875M7.12501 13.6667H11.875M13.4583 17.625H5.54168C5.12175 17.625 4.71902 17.4582 4.42209 17.1613C4.12516 16.8643 3.95834 16.4616 3.95834 16.0417V4.95833C3.95834 4.53841 4.12516 4.13568 4.42209 3.83875C4.71902 3.54181 5.12175 3.375 5.54168 3.375H9.96393C10.1739 3.37504 10.3752 3.45848 10.5236 3.60696L14.8097 7.89304C14.9582 8.04147 15.0416 8.2428 15.0417 8.45275V16.0417C15.0417 16.4616 14.8749 16.8643 14.5779 17.1613C14.281 17.4582 13.8783 17.625 13.4583 17.625Z" stroke="#5F30E2" stroke-width="2" stroke-linecap="round" stroke-linejoin="round"/>
<path d="M31.9082 7.49023H34.4043V16.6572C34.4043 17.5303 34.2051 18.2715 33.8066 18.8809C33.4141 19.4902 32.8662 19.9531 32.1631 20.2695C31.46 20.5859 30.6367 20.7441 29.6934 20.7441C29.2832 20.7441 28.8555 20.6885 28.4102 20.5771C27.9648 20.4717 27.5459 20.3105 27.1533 20.0938C26.7607 19.8828 26.4326 19.6133 26.1689 19.2852L27.3379 17.668C27.6074 17.9727 27.9297 18.2188 28.3047 18.4062C28.6797 18.5996 29.1074 18.6963 29.5879 18.6963C30.0273 18.6963 30.3994 18.6172 30.7041 18.459C31.0088 18.3008 31.2402 18.0693 31.3984 17.7646C31.5625 17.46 31.6445 17.0908 31.6445 16.6572V9.71387L31.9082 7.49023ZM25.5537 12.3594V12.1748C25.5537 11.4541 25.6416 10.7979 25.8174 10.2061C25.9932 9.6084 26.248 9.0957 26.582 8.66797C26.9219 8.23438 27.3291 7.90039 27.8037 7.66602C28.2842 7.43164 28.8232 7.31445 29.4209 7.31445C30.0654 7.31445 30.5986 7.4375 31.0205 7.68359C31.4424 7.92383 31.7852 8.26367 32.0488 8.70312C32.3125 9.13672 32.5205 9.64941 32.6729 10.2412C32.8252 10.8271 32.9482 11.4629 33.042 12.1484V12.4648C32.9482 13.1211 32.8135 13.7334 32.6377 14.3018C32.4619 14.8701 32.2334 15.3711 31.9521 15.8047C31.6709 16.2324 31.3193 16.5693 30.8975 16.8154C30.4814 17.0557 29.9834 17.1758 29.4033 17.1758C28.8115 17.1758 28.2783 17.0557 27.8037 16.8154C27.3291 16.5752 26.9219 16.2383 26.582 15.8047C26.248 15.3711 25.9932 14.8613 25.8174 14.2754C25.6416 13.6895 25.5537 13.0508 25.5537 12.3594ZM28.2959 12.1748V12.3594C28.2959 12.7344 28.3311 13.083 28.4014 13.4053C28.4775 13.7275 28.5889 14.0117 28.7354 14.2578C28.8877 14.5039 29.0752 14.6973 29.2979 14.8379C29.5264 14.9727 29.793 15.04 30.0977 15.04C30.543 15.04 30.9033 14.9463 31.1787 14.7588C31.46 14.5654 31.665 14.2988 31.7939 13.959C31.9287 13.6191 31.999 13.2236 32.0049 12.7725V11.8496C32.0049 11.4746 31.9668 11.1377 31.8906 10.8389C31.8145 10.54 31.7002 10.2881 31.5479 10.083C31.4014 9.87793 31.208 9.72266 30.9678 9.61719C30.7334 9.50586 30.4492 9.4502 30.1152 9.4502C29.8164 9.4502 29.5527 9.52051 29.3242 9.66113C29.0957 9.7959 28.9053 9.98633 28.7529 10.2324C28.6006 10.4785 28.4863 10.7686 28.4102 11.1025C28.334 11.4307 28.2959 11.7881 28.2959 12.1748ZM40.7148 17.1758C39.959 17.1758 39.2822 17.0557 38.6846 16.8154C38.0869 16.5752 37.5801 16.2441 37.1641 15.8223C36.7539 15.3945 36.4404 14.9023 36.2236 14.3457C36.0068 13.7891 35.8984 13.1943 35.8984 12.5615V12.2275C35.8984 11.5186 35.998 10.8652 36.1973 10.2676C36.3965 9.66992 36.6865 9.15137 37.0674 8.71191C37.4541 8.2666 37.9287 7.92383 38.4912 7.68359C39.0537 7.4375 39.6953 7.31445 40.416 7.31445C41.0898 7.31445 41.6904 7.42578 42.2178 7.64844C42.7451 7.86523 43.1904 8.17871 43.5537 8.58887C43.917 8.99316 44.1924 9.48242 44.3799 10.0566C44.5732 10.625 44.6699 11.2637 44.6699 11.9727V13.0977H37.0059V11.3311H41.9805V11.1201C41.9805 10.7861 41.9189 10.4932 41.7959 10.2412C41.6787 9.98926 41.5029 9.7959 41.2686 9.66113C41.04 9.52051 40.75 9.4502 40.3984 9.4502C40.0645 9.4502 39.7861 9.52051 39.5635 9.66113C39.3408 9.80176 39.1621 10.001 39.0273 10.2588C38.8984 10.5107 38.8047 10.8066 38.7461 11.1465C38.6875 11.4805 38.6582 11.8408 38.6582 12.2275V12.5615C38.6582 12.9307 38.708 13.2676 38.8076 13.5723C38.9072 13.877 39.0537 14.1377 39.2471 14.3545C39.4404 14.5713 39.6748 14.7412 39.9502 14.8643C40.2256 14.9873 40.5391 15.0488 40.8906 15.0488C41.3242 15.0488 41.7373 14.9668 42.1299 14.8027C42.5225 14.6328 42.8623 14.3691 43.1494 14.0117L44.4326 15.4795C44.2393 15.7607 43.9668 16.0332 43.6152 16.2969C43.2695 16.5547 42.8535 16.7656 42.3672 16.9297C41.8809 17.0938 41.3301 17.1758 40.7148 17.1758ZM48.6953 9.52051V17H45.9443V7.49023H48.5283L48.6953 9.52051ZM48.335 11.9111L47.6494 11.9287C47.6494 11.2139 47.7373 10.5723 47.9131 10.0039C48.0889 9.43555 48.3379 8.95215 48.6602 8.55371C48.9883 8.14941 49.3779 7.8418 49.8291 7.63086C50.2861 7.41992 50.79 7.31445 51.3408 7.31445C51.7861 7.31445 52.1934 7.37891 52.5625 7.50781C52.9316 7.63672 53.248 7.84473 53.5117 8.13184C53.7812 8.41309 53.9863 8.78809 54.127 9.25684C54.2676 9.71973 54.3379 10.291 54.3379 10.9707V17H51.5781V10.9619C51.5781 10.5635 51.5225 10.2559 51.4111 10.0391C51.2998 9.82227 51.1357 9.66992 50.9189 9.58203C50.708 9.49414 50.4502 9.4502 50.1455 9.4502C49.8232 9.4502 49.5479 9.51465 49.3193 9.64355C49.0908 9.7666 48.9033 9.93945 48.7568 10.1621C48.6104 10.3848 48.502 10.6455 48.4316 10.9443C48.3672 11.2432 48.335 11.5654 48.335 11.9111ZM60.6133 17.1758C59.8574 17.1758 59.1807 17.0557 58.583 16.8154C57.9854 16.5752 57.4785 16.2441 57.0625 15.8223C56.6523 15.3945 56.3389 14.9023 56.1221 14.3457C55.9053 13.7891 55.7969 13.1943 55.7969 12.5615V12.2275C55.7969 11.5186 55.8965 10.8652 56.0957 10.2676C56.2949 9.66992 56.585 9.15137 56.9658 8.71191C57.3525 8.2666 57.8271 7.92383 58.3896 7.68359C58.9521 7.4375 59.5938 7.31445 60.3145 7.31445C60.9883 7.31445 61.5889 7.42578 62.1162 7.64844C62.6436 7.86523 63.0889 8.17871 63.4521 8.58887C63.8154 8.99316 64.0908 9.48242 64.2783 10.0566C64.4717 10.625 64.5684 11.2637 64.5684 11.9727V13.0977H56.9043V11.3311H61.8789V11.1201C61.8789 10.7861 61.8174 10.4932 61.6943 10.2412C61.5771 9.98926 61.4014 9.7959 61.167 9.66113C60.9385 9.52051 60.6484 9.4502 60.2969 9.4502C59.9629 9.4502 59.6846 9.52051 59.4619 9.66113C59.2393 9.80176 59.0605 10.001 58.9258 10.2588C58.7969 10.5107 58.7031 10.8066 58.6445 11.1465C58.5859 11.4805 58.5566 11.8408 58.5566 12.2275V12.5615C58.5566 12.9307 58.6064 13.2676 58.7061 13.5723C58.8057 13.877 58.9521 14.1377 59.1455 14.3545C59.3389 14.5713 59.5732 14.7412 59.8486 14.8643C60.124 14.9873 60.4375 15.0488 60.7891 15.0488C61.2227 15.0488 61.6357 14.9668 62.0283 14.8027C62.4209 14.6328 62.7607 14.3691 63.0479 14.0117L64.3311 15.4795C64.1377 15.7607 63.8652 16.0332 63.5137 16.2969C63.168 16.5547 62.752 16.7656 62.2656 16.9297C61.7793 17.0938 61.2285 17.1758 60.6133 17.1758ZM68.6553 9.70508V17H65.9131V7.49023H68.4883L68.6553 9.70508ZM71.4941 7.41992L71.4502 9.97754C71.333 9.95996 71.1807 9.94531 70.9932 9.93359C70.8057 9.91602 70.6445 9.90723 70.5098 9.90723C70.1582 9.90723 69.8535 9.95117 69.5957 10.0391C69.3438 10.1211 69.1328 10.2441 68.9629 10.4082C68.7988 10.5723 68.6758 10.7773 68.5938 11.0234C68.5117 11.2637 68.4707 11.542 68.4707 11.8584L67.9521 11.6035C67.9521 10.9766 68.0137 10.4023 68.1367 9.88086C68.2598 9.35938 68.4385 8.9082 68.6729 8.52734C68.9072 8.14062 69.1943 7.8418 69.5342 7.63086C69.874 7.41992 70.2607 7.31445 70.6943 7.31445C70.835 7.31445 70.9785 7.32324 71.125 7.34082C71.2715 7.3584 71.3945 7.38477 71.4941 7.41992ZM77.374 14.7324V10.6543C77.374 10.3672 77.3301 10.1211 77.2422 9.91602C77.1543 9.71094 77.0166 9.5498 76.8291 9.43262C76.6416 9.31543 76.3984 9.25684 76.0996 9.25684C75.8477 9.25684 75.6279 9.30078 75.4404 9.38867C75.2588 9.47656 75.1182 9.60254 75.0186 9.7666C74.9248 9.93066 74.8779 10.1328 74.8779 10.373H72.1357C72.1357 9.94531 72.2324 9.54688 72.4258 9.17773C72.6191 8.80859 72.8945 8.4834 73.252 8.20215C73.6152 7.9209 74.0488 7.7041 74.5527 7.55176C75.0566 7.39355 75.6221 7.31445 76.249 7.31445C76.9932 7.31445 77.6553 7.44043 78.2354 7.69238C78.8213 7.93848 79.2842 8.31055 79.624 8.80859C79.9639 9.30078 80.1338 9.92188 80.1338 10.6719V14.6533C80.1338 15.2275 80.166 15.6787 80.2305 16.0068C80.3008 16.3291 80.4004 16.6104 80.5293 16.8506V17H77.7607C77.6318 16.7246 77.5352 16.3848 77.4707 15.9805C77.4062 15.5703 77.374 15.1543 77.374 14.7324ZM77.7168 11.1992L77.7344 12.7109H76.3721C76.0674 12.7109 75.8037 12.749 75.5811 12.8252C75.3643 12.9014 75.1885 13.0068 75.0537 13.1416C74.9189 13.2705 74.8193 13.4229 74.7549 13.5986C74.6963 13.7686 74.667 13.9561 74.667 14.1611C74.667 14.3545 74.7139 14.5303 74.8076 14.6885C74.9014 14.8408 75.0303 14.9609 75.1943 15.0488C75.3584 15.1367 75.5488 15.1807 75.7656 15.1807C76.123 15.1807 76.4277 15.1104 76.6797 14.9697C76.9375 14.8291 77.1367 14.6592 77.2773 14.46C77.418 14.2549 77.4883 14.0645 77.4883 13.8887L78.1475 15.0312C78.042 15.2656 77.9131 15.5088 77.7607 15.7607C77.6084 16.0068 77.415 16.2383 77.1807 16.4551C76.9463 16.666 76.6621 16.8389 76.3281 16.9736C76 17.1084 75.6045 17.1758 75.1416 17.1758C74.5439 17.1758 74.002 17.0557 73.5156 16.8154C73.0293 16.5693 72.6396 16.2324 72.3467 15.8047C72.0596 15.377 71.916 14.8848 71.916 14.3281C71.916 13.8301 72.0068 13.3877 72.1885 13.001C72.3701 12.6143 72.6426 12.2861 73.0059 12.0166C73.375 11.7471 73.8379 11.5449 74.3945 11.4102C74.9512 11.2695 75.6016 11.1992 76.3457 11.1992H77.7168ZM86.7695 7.49023V9.41504H81.127V7.49023H86.7695ZM82.4189 5.13477H85.1699V14.0205C85.1699 14.2842 85.2021 14.4863 85.2666 14.627C85.3311 14.7676 85.4365 14.8672 85.583 14.9258C85.7295 14.9785 85.917 15.0049 86.1455 15.0049C86.3096 15.0049 86.4502 14.999 86.5674 14.9873C86.6846 14.9756 86.793 14.9609 86.8926 14.9434V16.9297C86.6582 17.0059 86.4092 17.0645 86.1455 17.1055C85.8818 17.1523 85.5947 17.1758 85.2842 17.1758C84.6924 17.1758 84.1797 17.0791 83.7461 16.8857C83.3184 16.6924 82.9902 16.3877 82.7617 15.9717C82.5332 15.5498 82.4189 15.002 82.4189 14.3281V5.13477ZM87.4463 12.3418V12.1572C87.4463 11.46 87.5459 10.8184 87.7451 10.2324C87.9443 9.64062 88.2373 9.12793 88.624 8.69434C89.0107 8.26074 89.4854 7.92383 90.0479 7.68359C90.6104 7.4375 91.2549 7.31445 91.9814 7.31445C92.7197 7.31445 93.3701 7.4375 93.9326 7.68359C94.501 7.92383 94.9785 8.26074 95.3652 8.69434C95.752 9.12793 96.0449 9.64062 96.2441 10.2324C96.4434 10.8184 96.543 11.46 96.543 12.1572V12.3418C96.543 13.0332 96.4434 13.6748 96.2441 14.2666C96.0449 14.8525 95.752 15.3652 95.3652 15.8047C94.9785 16.2383 94.5039 16.5752 93.9414 16.8154C93.3789 17.0557 92.7314 17.1758 91.999 17.1758C91.2725 17.1758 90.625 17.0557 90.0566 16.8154C89.4883 16.5752 89.0107 16.2383 88.624 15.8047C88.2373 15.3652 87.9443 14.8525 87.7451 14.2666C87.5459 13.6748 87.4463 13.0332 87.4463 12.3418ZM90.1973 12.1572V12.3418C90.1973 12.7168 90.2266 13.0684 90.2852 13.3965C90.3496 13.7246 90.4521 14.0117 90.5928 14.2578C90.7334 14.5039 90.918 14.6973 91.1465 14.8379C91.3809 14.9727 91.665 15.04 91.999 15.04C92.333 15.04 92.6143 14.9727 92.8428 14.8379C93.0713 14.6973 93.2559 14.5039 93.3965 14.2578C93.5371 14.0117 93.6367 13.7246 93.6953 13.3965C93.7598 13.0684 93.792 12.7168 93.792 12.3418V12.1572C93.792 11.7881 93.7598 11.4424 93.6953 11.1201C93.6367 10.792 93.5371 10.502 93.3965 10.25C93.2559 9.99805 93.0684 9.80176 92.834 9.66113C92.6055 9.52051 92.3213 9.4502 91.9814 9.4502C91.6533 9.4502 91.375 9.52051 91.1465 9.66113C90.918 9.80176 90.7334 9.99805 90.5928 10.25C90.4521 10.502 90.3496 10.792 90.2852 11.1201C90.2266 11.4424 90.1973 11.7881 90.1973 12.1572ZM100.735 9.70508V17H97.9932V7.49023H100.568L100.735 9.70508ZM103.574 7.41992L103.53 9.97754C103.413 9.95996 103.261 9.94531 103.073 9.93359C102.886 9.91602 102.725 9.90723 102.59 9.90723C102.238 9.90723 101.934 9.95117 101.676 10.0391C101.424 10.1211 101.213 10.2441 101.043 10.4082C100.879 10.5723 100.756 10.7773 100.674 11.0234C100.592 11.2637 100.551 11.542 100.551 11.8584L100.032 11.6035C100.032 10.9766 100.094 10.4023 100.217 9.88086C100.34 9.35938 100.519 8.9082 100.753 8.52734C100.987 8.14062 101.274 7.8418 101.614 7.63086C101.954 7.41992 102.341 7.31445 102.774 7.31445C102.915 7.31445 103.059 7.32324 103.205 7.34082C103.352 7.3584 103.475 7.38477 103.574 7.41992ZM111.748 17V19.0654H103.785V17H111.748ZM115.431 9.70508V17H112.688V7.49023H115.264L115.431 9.70508ZM118.27 7.41992L118.226 9.97754C118.108 9.95996 117.956 9.94531 117.769 9.93359C117.581 9.91602 117.42 9.90723 117.285 9.90723C116.934 9.90723 116.629 9.95117 116.371 10.0391C116.119 10.1211 115.908 10.2441 115.738 10.4082C115.574 10.5723 115.451 10.7773 115.369 11.0234C115.287 11.2637 115.246 11.542 115.246 11.8584L114.728 11.6035C114.728 10.9766 114.789 10.4023 114.912 9.88086C115.035 9.35938 115.214 8.9082 115.448 8.52734C115.683 8.14062 115.97 7.8418 116.31 7.63086C116.649 7.41992 117.036 7.31445 117.47 7.31445C117.61 7.31445 117.754 7.32324 117.9 7.34082C118.047 7.3584 118.17 7.38477 118.27 7.41992ZM123.701 17.1758C122.945 17.1758 122.269 17.0557 121.671 16.8154C121.073 16.5752 120.566 16.2441 120.15 15.8223C119.74 15.3945 119.427 14.9023 119.21 14.3457C118.993 13.7891 118.885 13.1943 118.885 12.5615V12.2275C118.885 11.5186 118.984 10.8652 119.184 10.2676C119.383 9.66992 119.673 9.15137 120.054 8.71191C120.44 8.2666 120.915 7.92383 121.478 7.68359C122.04 7.4375 122.682 7.31445 123.402 7.31445C124.076 7.31445 124.677 7.42578 125.204 7.64844C125.731 7.86523 126.177 8.17871 126.54 8.58887C126.903 8.99316 127.179 9.48242 127.366 10.0566C127.56 10.625 127.656 11.2637 127.656 11.9727V13.0977H119.992V11.3311H124.967V11.1201C124.967 10.7861 124.905 10.4932 124.782 10.2412C124.665 9.98926 124.489 9.7959 124.255 9.66113C124.026 9.52051 123.736 9.4502 123.385 9.4502C123.051 9.4502 122.772 9.52051 122.55 9.66113C122.327 9.80176 122.148 10.001 122.014 10.2588C121.885 10.5107 121.791 10.8066 121.732 11.1465C121.674 11.4805 121.645 11.8408 121.645 12.2275V12.5615C121.645 12.9307 121.694 13.2676 121.794 13.5723C121.894 13.877 122.04 14.1377 122.233 14.3545C122.427 14.5713 122.661 14.7412 122.937 14.8643C123.212 14.9873 123.525 15.0488 123.877 15.0488C124.311 15.0488 124.724 14.9668 125.116 14.8027C125.509 14.6328 125.849 14.3691 126.136 14.0117L127.419 15.4795C127.226 15.7607 126.953 16.0332 126.602 16.2969C126.256 16.5547 125.84 16.7656 125.354 16.9297C124.867 17.0938 124.316 17.1758 123.701 17.1758ZM134.055 14.3545C134.055 14.1787 133.999 14.0234 133.888 13.8887C133.782 13.7539 133.589 13.6309 133.308 13.5195C133.032 13.4082 132.643 13.2969 132.139 13.1855C131.664 13.0859 131.222 12.957 130.812 12.7988C130.401 12.6348 130.044 12.4385 129.739 12.21C129.435 11.9756 129.197 11.7002 129.027 11.3838C128.857 11.0615 128.772 10.6953 128.772 10.2852C128.772 9.88672 128.857 9.50879 129.027 9.15137C129.203 8.79395 129.455 8.47754 129.783 8.20215C130.117 7.92676 130.521 7.70996 130.996 7.55176C131.477 7.39355 132.021 7.31445 132.631 7.31445C133.469 7.31445 134.192 7.44629 134.802 7.70996C135.411 7.96777 135.88 8.33105 136.208 8.7998C136.536 9.2627 136.7 9.79297 136.7 10.3906H133.958C133.958 10.1445 133.911 9.93066 133.817 9.74902C133.724 9.56738 133.58 9.42676 133.387 9.32715C133.193 9.22168 132.938 9.16895 132.622 9.16895C132.376 9.16895 132.159 9.21289 131.972 9.30078C131.79 9.38281 131.646 9.49707 131.541 9.64355C131.441 9.79004 131.392 9.95996 131.392 10.1533C131.392 10.2881 131.421 10.4111 131.479 10.5225C131.544 10.6279 131.641 10.7275 131.77 10.8213C131.904 10.9092 132.077 10.9883 132.288 11.0586C132.505 11.1289 132.769 11.1963 133.079 11.2607C133.741 11.3838 134.345 11.5566 134.89 11.7793C135.44 12.002 135.88 12.3096 136.208 12.7021C136.542 13.0947 136.709 13.6133 136.709 14.2578C136.709 14.6797 136.612 15.0664 136.419 15.418C136.231 15.7695 135.959 16.0771 135.602 16.3408C135.244 16.6045 134.816 16.8096 134.318 16.9561C133.82 17.1025 133.258 17.1758 132.631 17.1758C131.734 17.1758 130.976 17.0146 130.354 16.6924C129.733 16.3701 129.265 15.9658 128.948 15.4795C128.638 14.9873 128.482 14.4834 128.482 13.9678H131.058C131.069 14.2842 131.148 14.542 131.295 14.7412C131.447 14.9404 131.644 15.0869 131.884 15.1807C132.124 15.2686 132.394 15.3125 132.692 15.3125C132.991 15.3125 133.24 15.2715 133.439 15.1895C133.639 15.1074 133.791 14.9961 133.896 14.8555C134.002 14.709 134.055 14.542 134.055 14.3545ZM143.819 14.7061V7.49023H146.579V17H143.995L143.819 14.7061ZM144.109 12.7637L144.865 12.7461C144.865 13.3848 144.789 13.9736 144.637 14.5127C144.49 15.0518 144.268 15.5205 143.969 15.9189C143.676 16.3174 143.31 16.6279 142.87 16.8506C142.437 17.0674 141.93 17.1758 141.35 17.1758C140.881 17.1758 140.45 17.1113 140.058 16.9824C139.671 16.8477 139.337 16.6396 139.056 16.3584C138.774 16.0713 138.558 15.7051 138.405 15.2598C138.253 14.8086 138.177 14.2695 138.177 13.6426V7.49023H140.919V13.6602C140.919 13.9062 140.948 14.1172 141.007 14.293C141.071 14.4629 141.156 14.6035 141.262 14.7148C141.373 14.8262 141.508 14.9082 141.666 14.9609C141.83 15.0137 142.009 15.04 142.202 15.04C142.688 15.04 143.069 14.9404 143.345 14.7412C143.626 14.5361 143.822 14.2637 143.934 13.9238C144.051 13.5781 144.109 13.1914 144.109 12.7637ZM151.114 9.48535V17H148.372V7.49023H150.947L151.114 9.48535ZM150.763 11.9111L150.068 11.9287C150.068 11.2607 150.147 10.6484 150.306 10.0918C150.47 9.5293 150.707 9.04004 151.018 8.62402C151.328 8.20801 151.712 7.88574 152.169 7.65723C152.632 7.42871 153.165 7.31445 153.769 7.31445C154.19 7.31445 154.574 7.37891 154.92 7.50781C155.266 7.63086 155.562 7.82715 155.808 8.09668C156.06 8.36035 156.253 8.70605 156.388 9.13379C156.522 9.55566 156.59 10.0625 156.59 10.6543V17H153.848V10.9883C153.848 10.5664 153.795 10.2471 153.689 10.0303C153.59 9.80762 153.443 9.65527 153.25 9.57324C153.057 9.49121 152.825 9.4502 152.556 9.4502C152.263 9.4502 152.002 9.51465 151.773 9.64355C151.551 9.7666 151.363 9.93945 151.211 10.1621C151.059 10.3848 150.944 10.6455 150.868 10.9443C150.798 11.2432 150.763 11.5654 150.763 11.9111ZM156.309 11.7705L155.438 11.8408C155.438 11.1963 155.515 10.5986 155.667 10.0479C155.819 9.49707 156.048 9.01953 156.353 8.61523C156.657 8.20508 157.035 7.88574 157.486 7.65723C157.943 7.42871 158.474 7.31445 159.077 7.31445C159.522 7.31445 159.927 7.37891 160.29 7.50781C160.659 7.63672 160.976 7.84473 161.239 8.13184C161.509 8.41895 161.717 8.79688 161.863 9.26562C162.01 9.72852 162.083 10.2969 162.083 10.9707V17H159.323V10.9707C159.323 10.5547 159.271 10.2383 159.165 10.0215C159.065 9.80469 158.919 9.65527 158.726 9.57324C158.538 9.49121 158.312 9.4502 158.049 9.4502C157.756 9.4502 157.501 9.51172 157.284 9.63477C157.067 9.75195 156.886 9.91602 156.739 10.127C156.593 10.332 156.484 10.5752 156.414 10.8564C156.344 11.1377 156.309 11.4424 156.309 11.7705ZM168.402 17.1758C167.646 17.1758 166.97 17.0557 166.372 16.8154C165.774 16.5752 165.268 16.2441 164.852 15.8223C164.441 15.3945 164.128 14.9023 163.911 14.3457C163.694 13.7891 163.586 13.1943 163.586 12.5615V12.2275C163.586 11.5186 163.686 10.8652 163.885 10.2676C164.084 9.66992 164.374 9.15137 164.755 8.71191C165.142 8.2666 165.616 7.92383 166.179 7.68359C166.741 7.4375 167.383 7.31445 168.104 7.31445C168.777 7.31445 169.378 7.42578 169.905 7.64844C170.433 7.86523 170.878 8.17871 171.241 8.58887C171.604 8.99316 171.88 9.48242 172.067 10.0566C172.261 10.625 172.357 11.2637 172.357 11.9727V13.0977H164.693V11.3311H169.668V11.1201C169.668 10.7861 169.606 10.4932 169.483 10.2412C169.366 9.98926 169.19 9.7959 168.956 9.66113C168.728 9.52051 168.438 9.4502 168.086 9.4502C167.752 9.4502 167.474 9.52051 167.251 9.66113C167.028 9.80176 166.85 10.001 166.715 10.2588C166.586 10.5107 166.492 10.8066 166.434 11.1465C166.375 11.4805 166.346 11.8408 166.346 12.2275V12.5615C166.346 12.9307 166.396 13.2676 166.495 13.5723C166.595 13.877 166.741 14.1377 166.935 14.3545C167.128 14.5713 167.362 14.7412 167.638 14.8643C167.913 14.9873 168.227 15.0488 168.578 15.0488C169.012 15.0488 169.425 14.9668 169.817 14.8027C170.21 14.6328 170.55 14.3691 170.837 14.0117L172.12 15.4795C171.927 15.7607 171.654 16.0332 171.303 16.2969C170.957 16.5547 170.541 16.7656 170.055 16.9297C169.568 17.0938 169.018 17.1758 168.402 17.1758Z" fill="#28293D"/>
</svg>
